<svg xmlns="http://www.w3.org/2000/svg" width="800" height="200" viewBox="0 0 800 200"><defs><linearGradient id="a" x1="0%" y1="0%" x2="100%" y2="0%"><stop offset="0%" style="stop-color:#000;stop-opacity:1"/><stop offset="100%" style="stop-color:#292929;stop-opacity:1"/></linearGradient><filter id="b" x="-50%" y="-50%" width="200%" height="200%"><feGaussianBlur stdDeviation="3" result="blur"/><feFlood flood-color="#3F51B5" flood-opacity="1" result="glowColor"/><feComposite in="glowColor" in2="blur" operator="in" result="glow"/><feMerge><feMergeNode in="glow"/><feMergeNode in="SourceGraphic"/></feMerge></filter></defs><rect width="100%" height="100%" fill="url(#a)"/><g style="isolation:isolate" fill="none" stroke="#3F51B5" stroke-width="2"><path d="M0 100q200-75 400 0t400 0"/><path d="M0 105q200-75 400 0t400 0"/><path d="M0 110q200-75 400 0t400 0"/><path d="M0 95q200-75 400 0t400 0"/><path d="M0 90q200-75 400 0t400 0"/></g><g style="isolation:isolate" fill="none" stroke="#3F51B5" stroke-width="2"><path d="M0 200q0-100 100-100"/><path d="M0 197.5q0-100 97.5-100"/><path d="M0 195Q0 95 95 95"/><path d="M-50 205q50-50 130-50"/><path d="M-52.5 207.5q52.5-50 135-50"/><path d="M-55 210q55-50 140-50"/></g><g style="isolation:isolate" fill="none" stroke="#3F51B5" stroke-width="2"><path d="M800 0q0 100-100 100"/><path d="M800 2.5q0 100-97.5 100"/><path d="M800 5q0 100-95 100"/><path d="M900-5Q800 55 720 55"/><path d="M897.5-2.5q-97.5 60-180 60"/><path d="M895 0q-95 60-180 60"/></g><text x="50%" y="50%" fill="#FFF" font-family="Arial" font-size="80" text-anchor="middle" dominant-baseline="middle" filter="url(#b)">Hello There!</text></svg>