<svg xmlns="http://www.w3.org/2000/svg" width="800" height="300" viewBox="0 0 800 300"><defs><linearGradient id="a" x1="0%" y1="0%" x2="100%" y2="0%"><stop offset="0%" style="stop-color:#000;stop-opacity:1"/><stop offset="100%" style="stop-color:#292929;stop-opacity:1"/></linearGradient><filter id="b" x="-50%" y="-50%" width="200%" height="200%"><feGaussianBlur stdDeviation="3" result="blur"/><feFlood flood-color="#3F51B5" flood-opacity="1" result="glowColor"/><feComposite in="glowColor" in2="blur" operator="in" result="glow"/><feMerge><feMergeNode in="glow"/><feMergeNode in="SourceGraphic"/></feMerge></filter></defs><rect width="100%" height="100%" fill="url(#a)"/><g style="isolation:isolate" fill="none" stroke="#3F51B5" stroke-width="2"><path d="M0 150q200-75 400 0t400 0"/><path d="M0 155q200-75 400 0t400 0"/><path d="M0 160q200-75 400 0t400 0"/><path d="M0 145q200-75 400 0t400 0"/><path d="M0 140q200-75 400 0t400 0"/></g><g style="isolation:isolate" fill="none" stroke="#3F51B5" stroke-width="2"><path d="M0 300q0-150 150-150"/><path d="M0 295q0-150 145-150"/><path d="M0 290q0-150 140-150"/><path d="M-100 310Q0 160 160 160"/><path d="M-105 315Q0 165 165 165"/><path d="M-110 320Q0 170 170 170"/></g><g style="isolation:isolate" fill="none" stroke="#3F51B5" stroke-width="2"><path d="M800 0q0 150-150 150"/><path d="M800 5q0 150-145 150"/><path d="M800 10q0 150-140 150"/><path d="M900-10Q800 140 640 140"/><path d="M905-15Q800 135 635 135"/><path d="M910-20Q800 130 630 130"/></g><text x="50%" y="50%" fill="#FFF" font-family="Arial" font-size="80" text-anchor="middle" dominant-baseline="middle" filter="url(#b)">Hello There!</text></svg>